<svg width="88" height="67" viewBox="0 0 88 67" fill="none" xmlns="http://www.w3.org/2000/svg">
<g clip-path="url(#clip0)" filter="url(#filter0_d)">
<path d="M38.438 58.7011C54.5969 58.7011 67.6963 45.5604 67.6963 29.3506C67.6963 13.1407 54.5969 0 38.438 0C22.2791 0 9.17969 13.1407 9.17969 29.3506C9.17969 45.5604 22.2791 58.7011 38.438 58.7011Z" fill="#F4991D"/>
<path d="M4 16.3114L20.0688 14.6288C20.0688 14.6288 14.3155 9.96445 13.6927 7.79947C13.6927 7.79947 13.4523 6.59914 15.37 5.96883C17.2878 5.33852 25.4397 2.12119 25.4397 2.12119C25.4397 2.12119 37.1922 -1.53461 42.7051 12.8036L52.5344 11.2634V12.8036L69.7998 12.3213L70.4226 18.3339H74.739L79.9186 36.2786L57.3807 53.8396C57.3807 53.8396 52.2011 58.312 40.8365 58.5532L7.89018 45.4208L4 16.3114Z" fill="#2F358C"/>
<path d="M15.7032 7.89263C15.7032 7.89263 22.2761 5.39331 22.8006 4.86166C23.3743 4.28616 31.1929 1.34836 36.613 6.06199C36.613 6.06199 40.4485 9.81645 41.6505 14.3382L43.9508 19.0519L45.1473 21.2662C45.1473 21.2662 45.4806 22.0829 45.1473 22.2308C44.814 22.3788 42.3663 18.4764 42.3663 18.4764L41.2626 16.8869C41.2626 16.8869 40.301 15.6372 37.5199 16.2127C34.7389 16.7882 30.4717 17.2706 27.4011 16.7444C24.3851 16.1634 17.2823 10.1015 15.7032 7.89263Z" fill="#75B947"/>
<path d="M28.1715 16.695C25.1009 16.1634 18.0035 10.1014 16.419 7.89261C16.419 7.89261 22.9919 5.39329 23.5164 4.86164C23.806 4.57115 26.3466 3.51332 29.5101 3.42015C26.057 3.32149 23.1339 4.5273 22.7952 4.86164C22.2269 5.43714 15.7032 7.89261 15.7032 7.89261C17.2877 10.1563 24.3851 16.2182 27.4557 16.695C28.5102 16.8869 29.6631 16.9362 30.8596 16.9362C29.898 16.8869 28.9856 16.8375 28.1715 16.695Z" fill="#609744"/>
<path d="M21.4566 9.57531C21.4566 9.57531 24.4781 8.08448 26.1063 9.57531C29.3189 12.5076 36.2743 14.0478 37.6184 13.7628C37.6184 13.7628 30.663 15.3523 28.6524 14.2451C26.0134 12.7981 24.4289 10.825 21.4566 9.57531Z" fill="#609744"/>
<path d="M6.44781 18.4763L10.1905 44.2149L15.7034 43.8312L14.8401 32.7652L20.353 32.2829L19.6318 27.4706L14.1189 28.1941L13.6381 23.5297L20.353 22.3294L19.3914 16.1688L6.44781 18.4763ZM35.1269 20.6413L37.7659 41.6663L42.8964 41.0908L42.1752 30.507L50.5674 40.2248L54.5505 39.7424L51.4307 14.245L45.7703 14.8698L46.9668 25.5522L40.3994 19.5341L35.1269 20.6413Z" fill="white"/>
<path d="M40.3994 20.0165L46.9722 26.0291L46.9231 25.4974L40.3994 19.5341L35.1214 20.6413L35.1706 21.0743L40.3994 20.0165ZM51.4306 14.7218L54.5013 39.7425H54.5504L51.4306 14.245L45.7702 14.8698L45.8686 15.3522L51.4306 14.7218ZM42.1751 30.9839L42.8963 41.0853L42.2243 30.9839H42.1751Z" fill="#CDCBE6"/>
<path d="M52.8731 15.2041L53.5889 20.8824L56.9436 20.9811L58.4789 38.6846L64.8551 38.5421L64.2322 20.4987L68.6906 20.1644L67.8274 14.0038L52.8731 15.2041Z" fill="white"/>
<path d="M53.4468 15.7797L58.0036 15.1549L67.8329 13.9984L52.8677 15.1987L53.5889 20.8825H54.0697L53.4468 15.7797ZM57.5228 21.5567L56.9928 21.5073L58.4789 38.6847L59.0089 38.6354L57.5228 21.5567Z" fill="#CDCBE6"/>
<path d="M28.5104 19.2931L23.0903 19.9179L20.7901 43.3983L25.1065 43.1572L26.2101 36.9034L29.3299 36.5197L31.8651 42.2912L36.4218 41.6664L28.5104 19.2931ZM26.1118 32.9078L26.7346 28.819H27.6963L29.1332 32.5735L26.1118 32.9078Z" fill="white"/>
<path d="M23.2323 20.1098L28.554 19.3424L28.5048 19.2931L23.134 19.9179L20.8337 43.349L21.7954 43.2997L23.2323 20.1098ZM32.7283 42.1432L30.0401 36.465L29.4173 36.5636L31.865 42.2912L36.4218 41.6664V41.5239L32.7283 42.1432Z" fill="#CDCBE6"/>
<path d="M73.7338 20.8824L66.538 21.9896L66.7784 38.0105L70.614 37.6268L70.8544 33.538L73.0126 33.2968L74.6899 36.6621L78.7659 36.5196L73.7338 20.8824ZM72.0072 30.1179C70.6631 30.2165 70.3299 29.4437 70.0895 28.6764L73.2092 28.342C73.2092 28.3366 73.3513 30.0192 72.0072 30.1179Z" fill="white"/>
<path d="M67.4996 22.324L73.9742 21.6005L73.7338 20.8331L66.538 21.9403L66.7784 37.9118H67.1117L67.4996 22.324ZM73.8758 29.0107L73.1109 29.0601C73.0126 29.5424 72.7284 30.0686 71.9581 30.1179C71.5756 30.1672 71.2368 30.0686 70.9964 29.9754C71.2368 30.4084 71.6685 30.7427 72.5809 30.7427C73.925 30.6934 73.8758 29.0107 73.8758 29.0107ZM73.4934 33.8724L73.3513 33.9217L74.6954 36.6183H74.7446L73.4934 33.8724Z" fill="#C6C3E1"/>
<path d="M7.64426 27.1855L10.3324 44.2149L11.4361 44.1162L8.3163 27.6624L7.64426 27.1855Z" fill="#CDCBE6"/>
<path d="M81.5524 34.3986L81.1207 34.4972L81.0716 34.3547L82.0769 34.1629L82.1261 34.3054L81.6944 34.4041L81.8857 35.6537L81.6944 35.7031L81.5524 34.3986ZM83.7106 34.6891C83.6614 34.4972 83.6122 34.2561 83.5685 34.1136C83.5685 34.3054 83.5194 34.4479 83.4702 34.6891L83.3281 35.4126H83.1861L82.8528 34.7877C82.7544 34.5959 82.6615 34.4534 82.6124 34.2561C82.6615 34.4479 82.6615 34.6398 82.7107 34.8809L82.7599 35.4564L82.5687 35.5057L82.4266 34.1081L82.667 34.0588L83.0003 34.6836C83.0986 34.8261 83.1424 34.9741 83.2407 35.1166C83.2407 34.9741 83.2899 34.8261 83.2899 34.6343L83.4319 33.9108L83.6723 33.8615L84.0056 35.2098L83.8144 35.2591L83.7106 34.6891Z" fill="#2F358C"/>
</g>
<defs>
<filter id="filter0_d" x="0" y="0" width="88" height="66.6957" filterUnits="userSpaceOnUse" color-interpolation-filters="sRGB">
<feFlood flood-opacity="0" result="BackgroundImageFix"/>
<feColorMatrix in="SourceAlpha" type="matrix" values="0 0 0 0 0 0 0 0 0 0 0 0 0 0 0 0 0 0 127 0" result="hardAlpha"/>
<feOffset dy="4"/>
<feGaussianBlur stdDeviation="2"/>
<feComposite in2="hardAlpha" operator="out"/>
<feColorMatrix type="matrix" values="0 0 0 0 0 0 0 0 0 0 0 0 0 0 0 0 0 0 0.25 0"/>
<feBlend mode="normal" in2="BackgroundImageFix" result="effect1_dropShadow"/>
<feBlend mode="normal" in="SourceGraphic" in2="effect1_dropShadow" result="shape"/>
</filter>
<clipPath id="clip0">
<rect width="80" height="58.6957" fill="white" transform="translate(4)"/>
</clipPath>
</defs>
</svg>
